<mxfile host="app.diagrams.net" modified="2023-10-11T07:30:31.478Z" agent="Mozilla/5.0 (Macintosh; Intel Mac OS X 10_15_7) AppleWebKit/537.36 (KHTML, like Gecko) Chrome/117.0.0.0 Safari/537.36" etag="AQ8bWUwRKW0wStAHT0he" version="22.0.4" type="device">
  <diagram name="페이지-1" id="FtXBfV1CDaqSc8d-v0IZ">
    <mxGraphModel dx="1314" dy="835" grid="1" gridSize="10" guides="1" tooltips="1" connect="1" arrows="1" fold="1" page="1" pageScale="1" pageWidth="827" pageHeight="1169" math="0" shadow="0">
      <root>
        <mxCell id="0" />
        <mxCell id="1" parent="0" />
        <mxCell id="6vDfw6PsCwI-TyNO8EZm-1" value="" style="rounded=0;whiteSpace=wrap;html=1;" parent="1" vertex="1">
          <mxGeometry x="50" y="30" width="750" height="690" as="geometry" />
        </mxCell>
        <mxCell id="dtmGO2UV7yBJYXBy6EBv-16" value="" style="rounded=1;whiteSpace=wrap;html=1;fillColor=#fff2cc;strokeColor=#d6b656;" vertex="1" parent="1">
          <mxGeometry x="338.0899999999999" y="340" width="150" height="130" as="geometry" />
        </mxCell>
        <mxCell id="dtmGO2UV7yBJYXBy6EBv-17" value="" style="rounded=1;whiteSpace=wrap;html=1;fillColor=#fff2cc;strokeColor=#d6b656;" vertex="1" parent="1">
          <mxGeometry x="338.52" y="510" width="150" height="140" as="geometry" />
        </mxCell>
        <mxCell id="dtmGO2UV7yBJYXBy6EBv-2" value="" style="shape=image;verticalLabelPosition=bottom;labelBackgroundColor=default;verticalAlign=top;aspect=fixed;imageAspect=0;image=https://webhostinggeeks.com/blog/wp-content/uploads/2023/05/Nginx_server.png;" vertex="1" parent="1">
          <mxGeometry x="360" y="360" width="107.03" height="62.88" as="geometry" />
        </mxCell>
        <mxCell id="dtmGO2UV7yBJYXBy6EBv-15" value="" style="rounded=1;whiteSpace=wrap;html=1;fillColor=#fff2cc;strokeColor=#d6b656;" vertex="1" parent="1">
          <mxGeometry x="488.52" y="240" width="150" height="130" as="geometry" />
        </mxCell>
        <mxCell id="dtmGO2UV7yBJYXBy6EBv-13" value="" style="rounded=1;whiteSpace=wrap;html=1;fillColor=#fff2cc;strokeColor=#d6b656;" vertex="1" parent="1">
          <mxGeometry x="190" y="240" width="150" height="130" as="geometry" />
        </mxCell>
        <mxCell id="dtmGO2UV7yBJYXBy6EBv-4" value="" style="shape=image;verticalLabelPosition=bottom;labelBackgroundColor=default;verticalAlign=top;aspect=fixed;imageAspect=0;image=data:image/png,iVBORw0KGgoAAAANSUhEUgAAAYUAAACCCAMAAACejyR2AAABBVBMVEX///9tsz////7//f////z9////+/9stD7///j///pts0H6//tusz1rtTr9//av05tlsTqZxXdptUNnsTJxs0tlqzR2sEnd7tL1/vLD27P0/e1qtER4sFFuqj2w0JtptT2ly4eLwWy+3bBrqzD///JluDnP5cFotEhktDFsqELC5Kppqzp3qkuEt2NysT7v++Hf8c3p9ubN676EtWfh8tpkuDLA1aeZwXuw0ZPb7tba68TN4sTB17Ty/eeSw3Z8sFqXvoKLuXTc9st4pldoqiaGtliz1pmEw17u/tu92KxrrEqPuWie0YG63LOozIPR47afv4quyJ/l79zc8L+PxWmhzpbS4csZNH/9AAAUkUlEQVR4nO1dj1fayNqeZGYyySQT0wwBJEAoCIRGAQUL1UV0V7tVd7e93e39//+U750EBW237d17z2cPznNO9RCTAO8z749n5p0UIQ0NDQ0NDQ0NDQ0NDQ0NDQ0NDQ0NDQ0NDQ0NDQ0NDQ0NDQ2NHx6UIkQIoch86k/ynEFy6wMLRNPwdMCY5L+AB42ng3s0mey62KaahifE9OZYdHrYcTULTwfzddTtpzvIIU/9SZ41TqPjrtxFjnaFp4TfGmSzPcvUvvCEMB1/NPUJprpQfUIQmpeqJsVP/Ul+OICGsvDXBif+3GauS/Kj8MMEo7oOaAATXuQVqJkLg6IYJQibYHnTVqdjOK7+OUS9gHrVdtRhEw5QhCklxKQ2fJjiY8EhoEwFr+33HEpsgtxxcz7f+Rv8WQWeHlxDbGWz6pte7+TdnrItIs7itOe7UIDuTU9/+qkyohTb+bn+uLewMXIOe72RjUmt16tS4Gh6OjXB3HR00judunAySAhFW36ofd0+qUHccun41fRZJHJCLKcyaRhSBn+DqN72H12ELWd8lnWkjLJlc+wTC42WUXa+h533k0jKTjSYjc18SDvnUbb/ER22BvC7gmq3WTRZYHIUyc57SiqzAZyelXcWCLsF0yPI3xHgpllDdGcQ7L8nz8AbwFi7mRRJErMvw+Bp57z68CLsNwceS8J+0hVBdjHGqCmP02hsn2fdMEzCWKSdpqvOnDagNP3w8y+dVHRlEyrVrpBttLc0+sYv7nUjFf1+zIzL/Y8Qj4Az+3qQijgRgnWD5ci5ZKG4cky01TWVqUjAR5lhcIN53pdZ8IZJEpyjB7nBfpslzPCk9OCquLv00TzgpeDVeXrc4EwwXgqTaKZM18u8m/DXksdKpeT4HO2m3ZLcQdWSVxLDt1EY8qEQHk+C8jsLPo3/Oor73GNwbCjS+s+x4bG6vd0swHejNq6VhfFNRD2LbpSXoyj0RDb5rXUwiERyvF+jLbgJ+zVLeTaslzMJL7hsQRI+gTMNzg1vGKTZCdoN4PgO8kvMGPLAgHDXkWmXi5u0haiDeh1PlOI0uqmXZSBkHd4ZWECmudXJQYXcZiT4t2lY2psZ+lqG3uAVFEZOrX0QdWY2+qSoZKJxflLzayfnDZ6wMKsgVFEsiCTm0XJeoYoFI2fBAC8ScrJbqeweDJkopfUaQYt9uIfMLk5qrjtqDkT4PFiArDtqdL1vs8Dk76a9vq6VJmK5sJCj7nHyxsdI+YKRRk11BILXqwETPJ245I1ioZ+m9Z6tjt+zAHHLyz7lWX/xgjEuoh5BO5cxjy9bKqFAuvrzpvssWMAOdmdCDHnyLRZ4cjNCa1PMJASRkZIHppIMdMVC1AISXMim1GlmyrJT1FMsxF79HZSn4HprFhLBX4KIQxC1RgPuhfIaVeuyz42zPaieHeDH7GXPggUIMhUViTnbHPZCJDBQH/oHj+UcrZcqm5LBZSd7uQKjjoNUXmBsf6SkmEkcYi2WgnOwbM5COpgiy1HT2RssJI0jYFGpNDIzRAgF1M8ZK3mNCgwOM6+g7Zn3HFigyL94lJqHLDGy8s1nLHCRjdA9C6cdiPQhaIVKVSlcaqM/BGNyrsqZ/AzTvJY8FmdFXghayC4uXLMgksahOuJAhXod8ARYaEOGkhPTpsVnQ24v4nz7WcDoffYwGPF+V0zGtcrkgXvkLAQzsLdTXOjfZokYGkka1JsLeL0HEYmx6L1S0bm5KeopFg4KFgZjvLrwAQs1dcSBSq0d5SzsGMBCCxUmpwTj2vNgoVaXj6wdp9kYbFkZPGSHcdbNeqDWiuvQ6LaTJiGUqyIb/FaD4fwJwlg0Rncql0KoA+aWOQus7uJVgfU3LBS+MPeEKmOL/EMdSNCR8QxYQPOIefeWFjIwDE/UofbB1brIj4gVSQkbCnZQhXSuLjMp3dudgOLmqtYJluAOrUAw4I+sUjgknEtm3LHwF7qbLfwSC+Y9CxCR0h20ag2wHeRsOwuYEEynDdHPWSgxyaPZ77MIpHC9Bn9z60zEndbuLDNikFyQLCBPdH7PF8lU7Acy3DfNegS2j4fywkd/gHmDtukWJoSq9kh68fFFrtrYy3s7fs4CAUdqy5yFZpAM5ezO4fYcuoi2PDtDoIbaRIo4H+wsZNnOHvVbkrNyFQaoX45F0PKR/6qRChiQ+VliWVNDnagCxnEIInvj5rIjSgzkmapUxYzgVRa2UEsOw/TDHQsu/jsWTJDMKxbeR8nQq+9ZefSitkWvt50FVaePIxHzvEYSSf8VVJ3WxzULYSg/Wo6FjiIR9ou4lXSayocKO0OJaoEEqM0MHsrXOQssm1qrHhdrMRAlEe3Ce6xYKBLDV1l4N+hynr0vpqwotqoHbNtZoLh2AAmW5/aNs7fUwhZU92sWEtlDe9ii7Ua8ytQM6n4V4IlTO/QxBsnmOHgxSJUFc9WWTKorFvyW58VycFjkhe9kwZ5IHnr1UVFlYXsePQPVtpsmhueVcl+YOdi36bjM7lkAIVWuIOoSp5WlRn6Wx4MXyph2ZRAdVPJ7mGiclUSwC3kBTgjlWTEFTuYBKHL5Aq1Z+I6IBL9D5nUPFvmp/k4m7ll4AvP8f4DiajkP9iEbxglkZBeDdpX8ngX4o5cdQdVOqsu0lHuM15edHgRs51Z6PDrr1SA1jA8gfV9WgAXOjTiR5Z03h9P2JBOCiWyqWEiEeAl5opiF2o0YD4CFocHFflEjAT3twOOKBX+Sqvml/U+9j2926tEQAiE36j7UAls6s43RPMvlMWNenLWJ5aDKvlCTGSsWVBRijbEah71OmJ/qxYmY+BSj8zARUMZm5atyJIRIoEZqKRZ+HcRseHnZiVIR98OoDbmnF/U5e0lNVMi2a5koSeACC+kgH/N5jRR5UKICHe8Got9n6XGnI7N+9/JKfbq6s70sWAsZ37HAljWM7drS6Cb8AQvGcRkCPaa3sp/HLQ6D/ZpiPHrZUSk7DBMW92M2OMQ5C8GrZnTsJQkwYEgx2FFL+z0IMvIlXZVOwAJTkqA69Hj3ZsUCRKTMC9MmIpZZufHSJAYk4ji4eBUxcCQT4W1d8XRm6Z0q5t41HLBbUZIw4yELXTm3oWIBZ7jT0LJcc0DW9q6k9GQqhJRRaUwLFmSPzAc3JW4IwTv7721V1B42Egml1R0LpxljURv5B4KLX/IBDr6AK5kI5U/gLrkoB6cymDAuP7hvjURkLbRq7dgumLm0jbhX6OJSnI0sQmsZDHWDPWShxKJD7Nh+sRzXZ4J78l82NTHxK/OrUtYYlF7uVrHpFCy0EZr+VsqyrPTXTlX1xgAR7ZtsMrJW+RXv/TbIZlXLHJca5T/zihRYsOzfssHLKrIJMjF982JoRFn9bIxqN0Y+84rNLWQB4qzt/mVwXgT7fnKrVNZOkJPykAXO4j8UZ+fyfp5jGE1X9Q7xD0e1PdVwBEEFKlUO8gBQHY1HtfW7kdpG5wBYs3qYuwDUuhumNas1F9hApy3lQW51ceiCeL4Qw5Lc37jXNoE6GL3O7lmIgzlIOHsivsSCCK9MYKEZ3LOQGLckH8SqDYnmGu4hCyqVrlsFsGk7m40D5kr1uY9289gQ50A8x7LeHOUzGG6v3DG8RM3ubSWoTdx9j9+zAHHaRqB1jc9ZMARrHIJVj6L1nJ9xuZIKBK2s/ZAFSulXAwje+LlxjBCCWsfdWMio/HI2e1nOkmToGWpucStBKVFl+4oFyJYV5KOPnaIHYMWCvfIFL4G/mnicree4PXmWV51ETSaZ6nZ3LAQ5C4TmrUUrmGizpesBPw+5MglFvUxKkYRJmqbHUOxyI1qOzC1taYUQM9tYVVCtEjaqrDQBT8o1TFC1YCE24qgHLIwa67zg9Ut3kb7oLAUWIGalwoBTPwM1c/veX0BJsYPENDcZgbvAAWJWZlHA1Hw55/0Qyq/zdwRvqVSAUTzZaH6JszEM/koUFnkhLY8wxot68cqLQS1Dvbn2Bc7CYqnyIQ4HMpr8DxLptHnbkApRdNV889/f74cF5IVJem9Vj0cniDjTKCn8Q2RzH5HXjSJNiKQDEQm9WeeFWCTZxy/cddp8/d+ToNq+ndq0cnp6Whntba9aQ4oFNNtsBIMy3yEQgoqVBmEMZjuzxrEoaiS1Rm+SntxkoVH9/KYk35fwX3824t+t1uXhTt1zS4mAKP42WLPA1NwBIn8VLEBKTCABr1Y6SyysO6ZqqNhggV198bYQ8P8HBoMs4/suAErXPHGQLc0LlGCoS3mpWEBjjE3UfOd1wEuep/JiIjzGigKKKzHhWOhsoxeAZW01uWapjSKbdnfs7yEBjEqJ/X37nc2t9gUbox21llgYlXmDERxdqLZQ/qhXkiWDd5hY1dK6pkrkxAe5Vqu5jkn/84FKckn3hd1Bzw2ujVULTJcVJmcyuFbbQpqyG8beQxaSy7kyWjta944lnTGy0NHyZrZA9B9EC1AZ098r9rdP3HKQYl9BGg8LXxBiWYXRWZuIpP+IBb6sIQf5Vxv9MsE56KhaI+12dv9ZzCa97Hhr5yX+E0CVRG9Ff8VCnEQ/EQej6UD2H/aIsWwKljb/LddpgQ0PsU8/drpF4+o/efeJCOPs8R6t5wjIeOPGeoCzxsIiLhqXWVzixZaesBSHRnZCweTVssgXeUBacBFcqwWHSiR4t4WwrySw2u1pFpMakCrUNB11ob5x8kPwW8lr4BKrbYzExv4+hELpms7TmuCHADZbGyOcz3xV8hxeXHaTBFI0g4pVXt4eUtvGtNVhRb5gYcJKau8lVSwEc4eQfFpVTUoUXY0UW4oR23fsVcVE8n8mgcRjAze+jZ19cDjpAlU6OWA8aqxZCKM5gVoI+0fLRpACZNBYtoEZ21J7fVb9MkmSDFTbUsGCmCO0VzusonwT86qr0barh2ptAFuk6F5xCDhC7bDmUKhtlUcgc6lY2IMrtDdQDArhngWRZG/9/Ekte+Pm2XJ5MHt74iJsQ00K9RFjq3TBvFs/L+MVC7JV/b3e6DSW80OKSRHnP87LUdYYnLWrcP/cyJj2XpQzOPai52NwCTR9q7pqonlzbG/pnPV/AOpbbvl+HkPEiWw6MDyLvQNq6zEGm0F0b0Yhh1RRaDgj+9NS6zQ5C/yvK3ncD4WIyifFFnN/JwqSGG4louVYbdyHoDSaqeZuEIJcXiyArcV+mle9QZqNtWgA8eSfyn7I7nWavBjlagqs7DqOk09AH17IjRmnoThbrZspFpjhiSBhQ8687NB0TWyfSVbymAfRy/P6J2opDi/qATgSKEPI7EF9ZNHTu3WMVK1SP3eA1agLNi6tlUCSzZWIxqvnUCBndN3oJLy0jltKSOdJN/cFlkZXL+pgdhbfqsmGeVTiXVk+O8hYMkzqC0yxc+Z5gmX1F5ObxEiMiyqqLYs2qChaTp/w6/8gyCdy3nREf62KmRfdtHqjVXFT67VKEir7jTmNYKfYclawYMjsd9+stTKRsMs34DeNtCSCTyDzTvbFsJs2IcCNA+GJwas903/VUF0tRxgv/ryBLBMdVaqOjkj5NBmZb26oGrIEDDU4aO00d1oXg8gL+4qDeyHHlotV90URkTpzZFlqZxzzgreY7ESMi1sXI0u1wPMUBLnZEpBSPjhwnt+MYiEubMuyl0Wlird5Q/93Qm17JebiRgw3CiWoSIEIKQOZpgZXER7iSbE6zYeJWtB0i6sVC0ljpEoj8pOESvcFIi9jHsv3yNmDNF1KSgbobqcOOq8xtiiEv2oWMqO0gPdVy3gSKrItbDL6RzDRTvBo5uhvAFJOTNb1fa4XytRRCxMfU/CBC9OtcxHLKSUUqDpjXuz1EFgeTiuW4JwrYQzTQ/CmcsGCRgGTWLX6dzwEQ5U0rKuWp++QR6QDSiCokEPJFEOq1z4OFiAQQK61Ai+RbXIIyT2pr1bmJpzz9A3wpll4CFCyR9m3KVAsiO45WWfTnIVlwcJHmfuCXwZfCEaUrlgI5fucBVGvFTsSDwxgYQr+p1l4COxCkf9dzuDJ0giv43gekRpU7ZIl/y4iEr3iLJYfUR6RDpjXhzTiDiEiDVYRqZ54OiJ9EWDXadYdGl99DkbMlOR6izaerZdn5+gIah/LPk+9kpxDPWR4Ja+pdmji0YA3jKyG3AMei2wX+ablwCWluGxjbEPKVvNIelJ1E58CFn/1oTBK/EJc2bwmj0hsCdrCbTdSpghBPVDFsjxVTyVsgaZLL8DKzSARYrlAFl5MGGPRHP66tw+llxypGfGn+so/IEY3XfY1FpiI4+SyTe2NsVuw4A1a12egy8LjJUhx9yrtg8nblZNZ1uVhWjGptSgl4pgd9CrvD4IkTBsgl7G9FMIzZs3zD6On+9I/HOzX0ddTg8fCbOZbziMWDG4InskuKyWNnuoDGA/6QEMnCCQbev1zk1JsHg24EDyVEQgPlr3ON/jODM/jqv3uxdN96R8NFDut6GskgFKIliNsmxvrm3l2/vVGiMQYel25gzCxTXR0KcIkGfLQGMqXDqGujcmrfNpI7Txkl59cy3Sw2j/l8RIo6bMn/No/GEyK7fZ+JEVsfP7kQvUgT5EOmtVH/4eLP5HpYNwrp4GU0eAnf/XA1dEsk4E6VN+tqtSvrqncRnCPwMiuesXKG7I/dNIgTtP98Rc+zjMFcUBo1XqtF1/CDNB6PXIe9w/Rxb8+nBA8et+cN3vV+62wmE5fz+fz60rVJ6vlNwvVxrvzVqv5c5XiwpuwP242W/Pdqp7BuAc1bRt/Y9Xrs2JG7fpw8qtMkj+zrWDBXHeWWqvJOtX/u4pkxL67uFjsJHv/q++wDSC279sOQe7nMNWUHwStR/+PjplbnhDIvzhvEFhvUDBVR4Zj3zGiGmngctsHgXdXZOUsOdu6O+SfQTWuULUVBMz1GCj/qUb7o4uoGuhqbDv5zh3XLc7In8XsmPmeqrunluSdqWb+YtVQSUGvUdMkek5VQ0NDQ0NDQ0NDQ0NDQ0NDQ0NDQ0NDQ0NDQ0NDQ0NDQ0NDQ0NDQ0NDQ0NDQ0NDQ0NDQ0ND4+nxf/4Z6N1NNxhLAAAAAElFTkSuQmCC;clipPath=inset(0% 28.33% 0% 22.33%);" vertex="1" parent="1">
          <mxGeometry x="210" y="260" width="106.18" height="71.74" as="geometry" />
        </mxCell>
        <mxCell id="dtmGO2UV7yBJYXBy6EBv-5" value="" style="shape=image;verticalLabelPosition=bottom;labelBackgroundColor=default;verticalAlign=top;aspect=fixed;imageAspect=0;image=data:image/png,iVBORw0KGgoAAAANSUhEUgAAAYUAAACCCAMAAACejyR2AAABBVBMVEX///9tsz////7//f////z9////+/9stD7///j///pts0H6//tusz1rtTr9//av05tlsTqZxXdptUNnsTJxs0tlqzR2sEnd7tL1/vLD27P0/e1qtER4sFFuqj2w0JtptT2ly4eLwWy+3bBrqzD///JluDnP5cFotEhktDFsqELC5Kppqzp3qkuEt2NysT7v++Hf8c3p9ubN676EtWfh8tpkuDLA1aeZwXuw0ZPb7tba68TN4sTB17Ty/eeSw3Z8sFqXvoKLuXTc9st4pldoqiaGtliz1pmEw17u/tu92KxrrEqPuWie0YG63LOozIPR47afv4quyJ/l79zc8L+PxWmhzpbS4csZNH/9AAAUkUlEQVR4nO1dj1fayNqeZGYyySQT0wwBJEAoCIRGAQUL1UV0V7tVd7e93e39//+U750EBW237d17z2cPznNO9RCTAO8z749n5p0UIQ0NDQ0NDQ0NDQ0NDQ0NDQ0NDQ0NDQ0NDQ0NDQ0NDQ0NDQ2NHx6UIkQIoch86k/ynEFy6wMLRNPwdMCY5L+AB42ng3s0mey62KaahifE9OZYdHrYcTULTwfzddTtpzvIIU/9SZ41TqPjrtxFjnaFp4TfGmSzPcvUvvCEMB1/NPUJprpQfUIQmpeqJsVP/Ul+OICGsvDXBif+3GauS/Kj8MMEo7oOaAATXuQVqJkLg6IYJQibYHnTVqdjOK7+OUS9gHrVdtRhEw5QhCklxKQ2fJjiY8EhoEwFr+33HEpsgtxxcz7f+Rv8WQWeHlxDbGWz6pte7+TdnrItIs7itOe7UIDuTU9/+qkyohTb+bn+uLewMXIOe72RjUmt16tS4Gh6OjXB3HR00judunAySAhFW36ofd0+qUHccun41fRZJHJCLKcyaRhSBn+DqN72H12ELWd8lnWkjLJlc+wTC42WUXa+h533k0jKTjSYjc18SDvnUbb/ER22BvC7gmq3WTRZYHIUyc57SiqzAZyelXcWCLsF0yPI3xHgpllDdGcQ7L8nz8AbwFi7mRRJErMvw+Bp57z68CLsNwceS8J+0hVBdjHGqCmP02hsn2fdMEzCWKSdpqvOnDagNP3w8y+dVHRlEyrVrpBttLc0+sYv7nUjFf1+zIzL/Y8Qj4Az+3qQijgRgnWD5ci5ZKG4cky01TWVqUjAR5lhcIN53pdZ8IZJEpyjB7nBfpslzPCk9OCquLv00TzgpeDVeXrc4EwwXgqTaKZM18u8m/DXksdKpeT4HO2m3ZLcQdWSVxLDt1EY8qEQHk+C8jsLPo3/Oor73GNwbCjS+s+x4bG6vd0swHejNq6VhfFNRD2LbpSXoyj0RDb5rXUwiERyvF+jLbgJ+zVLeTaslzMJL7hsQRI+gTMNzg1vGKTZCdoN4PgO8kvMGPLAgHDXkWmXi5u0haiDeh1PlOI0uqmXZSBkHd4ZWECmudXJQYXcZiT4t2lY2psZ+lqG3uAVFEZOrX0QdWY2+qSoZKJxflLzayfnDZ6wMKsgVFEsiCTm0XJeoYoFI2fBAC8ScrJbqeweDJkopfUaQYt9uIfMLk5qrjtqDkT4PFiArDtqdL1vs8Dk76a9vq6VJmK5sJCj7nHyxsdI+YKRRk11BILXqwETPJ245I1ioZ+m9Z6tjt+zAHHLyz7lWX/xgjEuoh5BO5cxjy9bKqFAuvrzpvssWMAOdmdCDHnyLRZ4cjNCa1PMJASRkZIHppIMdMVC1AISXMim1GlmyrJT1FMsxF79HZSn4HprFhLBX4KIQxC1RgPuhfIaVeuyz42zPaieHeDH7GXPggUIMhUViTnbHPZCJDBQH/oHj+UcrZcqm5LBZSd7uQKjjoNUXmBsf6SkmEkcYi2WgnOwbM5COpgiy1HT2RssJI0jYFGpNDIzRAgF1M8ZK3mNCgwOM6+g7Zn3HFigyL94lJqHLDGy8s1nLHCRjdA9C6cdiPQhaIVKVSlcaqM/BGNyrsqZ/AzTvJY8FmdFXghayC4uXLMgksahOuJAhXod8ARYaEOGkhPTpsVnQ24v4nz7WcDoffYwGPF+V0zGtcrkgXvkLAQzsLdTXOjfZokYGkka1JsLeL0HEYmx6L1S0bm5KeopFg4KFgZjvLrwAQs1dcSBSq0d5SzsGMBCCxUmpwTj2vNgoVaXj6wdp9kYbFkZPGSHcdbNeqDWiuvQ6LaTJiGUqyIb/FaD4fwJwlg0Rncql0KoA+aWOQus7uJVgfU3LBS+MPeEKmOL/EMdSNCR8QxYQPOIefeWFjIwDE/UofbB1brIj4gVSQkbCnZQhXSuLjMp3dudgOLmqtYJluAOrUAw4I+sUjgknEtm3LHwF7qbLfwSC+Y9CxCR0h20ag2wHeRsOwuYEEynDdHPWSgxyaPZ77MIpHC9Bn9z60zEndbuLDNikFyQLCBPdH7PF8lU7Acy3DfNegS2j4fywkd/gHmDtukWJoSq9kh68fFFrtrYy3s7fs4CAUdqy5yFZpAM5ezO4fYcuoi2PDtDoIbaRIo4H+wsZNnOHvVbkrNyFQaoX45F0PKR/6qRChiQ+VliWVNDnagCxnEIInvj5rIjSgzkmapUxYzgVRa2UEsOw/TDHQsu/jsWTJDMKxbeR8nQq+9ZefSitkWvt50FVaePIxHzvEYSSf8VVJ3WxzULYSg/Wo6FjiIR9ou4lXSayocKO0OJaoEEqM0MHsrXOQssm1qrHhdrMRAlEe3Ce6xYKBLDV1l4N+hynr0vpqwotqoHbNtZoLh2AAmW5/aNs7fUwhZU92sWEtlDe9ii7Ua8ytQM6n4V4IlTO/QxBsnmOHgxSJUFc9WWTKorFvyW58VycFjkhe9kwZ5IHnr1UVFlYXsePQPVtpsmhueVcl+YOdi36bjM7lkAIVWuIOoSp5WlRn6Wx4MXyph2ZRAdVPJ7mGiclUSwC3kBTgjlWTEFTuYBKHL5Aq1Z+I6IBL9D5nUPFvmp/k4m7ll4AvP8f4DiajkP9iEbxglkZBeDdpX8ngX4o5cdQdVOqsu0lHuM15edHgRs51Z6PDrr1SA1jA8gfV9WgAXOjTiR5Z03h9P2JBOCiWyqWEiEeAl5opiF2o0YD4CFocHFflEjAT3twOOKBX+Sqvml/U+9j2926tEQAiE36j7UAls6s43RPMvlMWNenLWJ5aDKvlCTGSsWVBRijbEah71OmJ/qxYmY+BSj8zARUMZm5atyJIRIoEZqKRZ+HcRseHnZiVIR98OoDbmnF/U5e0lNVMi2a5koSeACC+kgH/N5jRR5UKICHe8Got9n6XGnI7N+9/JKfbq6s70sWAsZ37HAljWM7drS6Cb8AQvGcRkCPaa3sp/HLQ6D/ZpiPHrZUSk7DBMW92M2OMQ5C8GrZnTsJQkwYEgx2FFL+z0IMvIlXZVOwAJTkqA69Hj3ZsUCRKTMC9MmIpZZufHSJAYk4ji4eBUxcCQT4W1d8XRm6Z0q5t41HLBbUZIw4yELXTm3oWIBZ7jT0LJcc0DW9q6k9GQqhJRRaUwLFmSPzAc3JW4IwTv7721V1B42Egml1R0LpxljURv5B4KLX/IBDr6AK5kI5U/gLrkoB6cymDAuP7hvjURkLbRq7dgumLm0jbhX6OJSnI0sQmsZDHWDPWShxKJD7Nh+sRzXZ4J78l82NTHxK/OrUtYYlF7uVrHpFCy0EZr+VsqyrPTXTlX1xgAR7ZtsMrJW+RXv/TbIZlXLHJca5T/zihRYsOzfssHLKrIJMjF982JoRFn9bIxqN0Y+84rNLWQB4qzt/mVwXgT7fnKrVNZOkJPykAXO4j8UZ+fyfp5jGE1X9Q7xD0e1PdVwBEEFKlUO8gBQHY1HtfW7kdpG5wBYs3qYuwDUuhumNas1F9hApy3lQW51ceiCeL4Qw5Lc37jXNoE6GL3O7lmIgzlIOHsivsSCCK9MYKEZ3LOQGLckH8SqDYnmGu4hCyqVrlsFsGk7m40D5kr1uY9289gQ50A8x7LeHOUzGG6v3DG8RM3ubSWoTdx9j9+zAHHaRqB1jc9ZMARrHIJVj6L1nJ9xuZIKBK2s/ZAFSulXAwje+LlxjBCCWsfdWMio/HI2e1nOkmToGWpucStBKVFl+4oFyJYV5KOPnaIHYMWCvfIFL4G/mnicree4PXmWV51ETSaZ6nZ3LAQ5C4TmrUUrmGizpesBPw+5MglFvUxKkYRJmqbHUOxyI1qOzC1taYUQM9tYVVCtEjaqrDQBT8o1TFC1YCE24qgHLIwa67zg9Ut3kb7oLAUWIGalwoBTPwM1c/veX0BJsYPENDcZgbvAAWJWZlHA1Hw55/0Qyq/zdwRvqVSAUTzZaH6JszEM/koUFnkhLY8wxot68cqLQS1Dvbn2Bc7CYqnyIQ4HMpr8DxLptHnbkApRdNV889/f74cF5IVJem9Vj0cniDjTKCn8Q2RzH5HXjSJNiKQDEQm9WeeFWCTZxy/cddp8/d+ToNq+ndq0cnp6Whntba9aQ4oFNNtsBIMy3yEQgoqVBmEMZjuzxrEoaiS1Rm+SntxkoVH9/KYk35fwX3824t+t1uXhTt1zS4mAKP42WLPA1NwBIn8VLEBKTCABr1Y6SyysO6ZqqNhggV198bYQ8P8HBoMs4/suAErXPHGQLc0LlGCoS3mpWEBjjE3UfOd1wEuep/JiIjzGigKKKzHhWOhsoxeAZW01uWapjSKbdnfs7yEBjEqJ/X37nc2t9gUbox21llgYlXmDERxdqLZQ/qhXkiWDd5hY1dK6pkrkxAe5Vqu5jkn/84FKckn3hd1Bzw2ujVULTJcVJmcyuFbbQpqyG8beQxaSy7kyWjta944lnTGy0NHyZrZA9B9EC1AZ098r9rdP3HKQYl9BGg8LXxBiWYXRWZuIpP+IBb6sIQf5Vxv9MsE56KhaI+12dv9ZzCa97Hhr5yX+E0CVRG9Ff8VCnEQ/EQej6UD2H/aIsWwKljb/LddpgQ0PsU8/drpF4+o/efeJCOPs8R6t5wjIeOPGeoCzxsIiLhqXWVzixZaesBSHRnZCweTVssgXeUBacBFcqwWHSiR4t4WwrySw2u1pFpMakCrUNB11ob5x8kPwW8lr4BKrbYzExv4+hELpms7TmuCHADZbGyOcz3xV8hxeXHaTBFI0g4pVXt4eUtvGtNVhRb5gYcJKau8lVSwEc4eQfFpVTUoUXY0UW4oR23fsVcVE8n8mgcRjAze+jZ19cDjpAlU6OWA8aqxZCKM5gVoI+0fLRpACZNBYtoEZ21J7fVb9MkmSDFTbUsGCmCO0VzusonwT86qr0barh2ptAFuk6F5xCDhC7bDmUKhtlUcgc6lY2IMrtDdQDArhngWRZG/9/Ekte+Pm2XJ5MHt74iJsQ00K9RFjq3TBvFs/L+MVC7JV/b3e6DSW80OKSRHnP87LUdYYnLWrcP/cyJj2XpQzOPai52NwCTR9q7pqonlzbG/pnPV/AOpbbvl+HkPEiWw6MDyLvQNq6zEGm0F0b0Yhh1RRaDgj+9NS6zQ5C/yvK3ncD4WIyifFFnN/JwqSGG4louVYbdyHoDSaqeZuEIJcXiyArcV+mle9QZqNtWgA8eSfyn7I7nWavBjlagqs7DqOk09AH17IjRmnoThbrZspFpjhiSBhQ8687NB0TWyfSVbymAfRy/P6J2opDi/qATgSKEPI7EF9ZNHTu3WMVK1SP3eA1agLNi6tlUCSzZWIxqvnUCBndN3oJLy0jltKSOdJN/cFlkZXL+pgdhbfqsmGeVTiXVk+O8hYMkzqC0yxc+Z5gmX1F5ObxEiMiyqqLYs2qChaTp/w6/8gyCdy3nREf62KmRfdtHqjVXFT67VKEir7jTmNYKfYclawYMjsd9+stTKRsMs34DeNtCSCTyDzTvbFsJs2IcCNA+GJwas903/VUF0tRxgv/ryBLBMdVaqOjkj5NBmZb26oGrIEDDU4aO00d1oXg8gL+4qDeyHHlotV90URkTpzZFlqZxzzgreY7ESMi1sXI0u1wPMUBLnZEpBSPjhwnt+MYiEubMuyl0Wlird5Q/93Qm17JebiRgw3CiWoSIEIKQOZpgZXER7iSbE6zYeJWtB0i6sVC0ljpEoj8pOESvcFIi9jHsv3yNmDNF1KSgbobqcOOq8xtiiEv2oWMqO0gPdVy3gSKrItbDL6RzDRTvBo5uhvAFJOTNb1fa4XytRRCxMfU/CBC9OtcxHLKSUUqDpjXuz1EFgeTiuW4JwrYQzTQ/CmcsGCRgGTWLX6dzwEQ5U0rKuWp++QR6QDSiCokEPJFEOq1z4OFiAQQK61Ai+RbXIIyT2pr1bmJpzz9A3wpll4CFCyR9m3KVAsiO45WWfTnIVlwcJHmfuCXwZfCEaUrlgI5fucBVGvFTsSDwxgYQr+p1l4COxCkf9dzuDJ0giv43gekRpU7ZIl/y4iEr3iLJYfUR6RDpjXhzTiDiEiDVYRqZ54OiJ9EWDXadYdGl99DkbMlOR6izaerZdn5+gIah/LPk+9kpxDPWR4Ja+pdmji0YA3jKyG3AMei2wX+ablwCWluGxjbEPKVvNIelJ1E58CFn/1oTBK/EJc2bwmj0hsCdrCbTdSpghBPVDFsjxVTyVsgaZLL8DKzSARYrlAFl5MGGPRHP66tw+llxypGfGn+so/IEY3XfY1FpiI4+SyTe2NsVuw4A1a12egy8LjJUhx9yrtg8nblZNZ1uVhWjGptSgl4pgd9CrvD4IkTBsgl7G9FMIzZs3zD6On+9I/HOzX0ddTg8fCbOZbziMWDG4InskuKyWNnuoDGA/6QEMnCCQbev1zk1JsHg24EDyVEQgPlr3ON/jODM/jqv3uxdN96R8NFDut6GskgFKIliNsmxvrm3l2/vVGiMQYel25gzCxTXR0KcIkGfLQGMqXDqGujcmrfNpI7Txkl59cy3Sw2j/l8RIo6bMn/No/GEyK7fZ+JEVsfP7kQvUgT5EOmtVH/4eLP5HpYNwrp4GU0eAnf/XA1dEsk4E6VN+tqtSvrqncRnCPwMiuesXKG7I/dNIgTtP98Rc+zjMFcUBo1XqtF1/CDNB6PXIe9w/Rxb8+nBA8et+cN3vV+62wmE5fz+fz60rVJ6vlNwvVxrvzVqv5c5XiwpuwP242W/Pdqp7BuAc1bRt/Y9Xrs2JG7fpw8qtMkj+zrWDBXHeWWqvJOtX/u4pkxL67uFjsJHv/q++wDSC279sOQe7nMNWUHwStR/+PjplbnhDIvzhvEFhvUDBVR4Zj3zGiGmngctsHgXdXZOUsOdu6O+SfQTWuULUVBMz1GCj/qUb7o4uoGuhqbDv5zh3XLc7In8XsmPmeqrunluSdqWb+YtVQSUGvUdMkek5VQ0NDQ0NDQ0NDQ0NDQ0NDQ0NDQ0NDQ0NDQ0NDQ0NDQ0NDQ0NDQ0NDQ0NDQ0NDQ0NDQ0ND4+nxf/4Z6N1NNxhLAAAAAElFTkSuQmCC;clipPath=inset(0% 28.33% 0% 22.33%);" vertex="1" parent="1">
          <mxGeometry x="510" y="260" width="106.18" height="71.74" as="geometry" />
        </mxCell>
        <mxCell id="dtmGO2UV7yBJYXBy6EBv-6" value="" style="shape=flexArrow;endArrow=classic;html=1;rounded=0;width=8;endSize=5.91;exitX=0;exitY=0;exitDx=0;exitDy=0;" edge="1" parent="1" source="dtmGO2UV7yBJYXBy6EBv-2">
          <mxGeometry width="50" height="50" relative="1" as="geometry">
            <mxPoint x="356.18" y="350" as="sourcePoint" />
            <mxPoint x="316.18000000000006" y="319.99776544706265" as="targetPoint" />
          </mxGeometry>
        </mxCell>
        <mxCell id="dtmGO2UV7yBJYXBy6EBv-7" value="" style="shape=flexArrow;endArrow=classic;html=1;rounded=0;width=8;endSize=5.91;entryX=0;entryY=0.878;entryDx=0;entryDy=0;entryPerimeter=0;" edge="1" parent="1" target="dtmGO2UV7yBJYXBy6EBv-5">
          <mxGeometry width="50" height="50" relative="1" as="geometry">
            <mxPoint x="467.03" y="360" as="sourcePoint" />
            <mxPoint x="500" y="330" as="targetPoint" />
          </mxGeometry>
        </mxCell>
        <mxCell id="dtmGO2UV7yBJYXBy6EBv-8" value="Port 8080" style="text;html=1;strokeColor=none;fillColor=none;align=center;verticalAlign=middle;whiteSpace=wrap;rounded=0;" vertex="1" parent="1">
          <mxGeometry x="233.09" y="330" width="60" height="30" as="geometry" />
        </mxCell>
        <mxCell id="dtmGO2UV7yBJYXBy6EBv-25" value="" style="rounded=1;whiteSpace=wrap;html=1;fillColor=#fff2cc;strokeColor=#d6b656;" vertex="1" parent="1">
          <mxGeometry x="353.09" y="80" width="126.91" height="110" as="geometry" />
        </mxCell>
        <mxCell id="dtmGO2UV7yBJYXBy6EBv-9" value="Port 8081" style="text;html=1;strokeColor=none;fillColor=none;align=center;verticalAlign=middle;whiteSpace=wrap;rounded=0;" vertex="1" parent="1">
          <mxGeometry x="533.09" y="330" width="60" height="30" as="geometry" />
        </mxCell>
        <mxCell id="dtmGO2UV7yBJYXBy6EBv-10" value="Port 5000" style="text;html=1;strokeColor=none;fillColor=none;align=center;verticalAlign=middle;whiteSpace=wrap;rounded=0;" vertex="1" parent="1">
          <mxGeometry x="383.51" y="422.88" width="60" height="30" as="geometry" />
        </mxCell>
        <mxCell id="dtmGO2UV7yBJYXBy6EBv-11" value="" style="shape=image;verticalLabelPosition=bottom;labelBackgroundColor=default;verticalAlign=top;aspect=fixed;imageAspect=0;image=data:image/png,iVBORw0KGgoAAAANSUhEUgAAAYUAAACCCAMAAACejyR2AAABBVBMVEX///9tsz////7//f////z9////+/9stD7///j///pts0H6//tusz1rtTr9//av05tlsTqZxXdptUNnsTJxs0tlqzR2sEnd7tL1/vLD27P0/e1qtER4sFFuqj2w0JtptT2ly4eLwWy+3bBrqzD///JluDnP5cFotEhktDFsqELC5Kppqzp3qkuEt2NysT7v++Hf8c3p9ubN676EtWfh8tpkuDLA1aeZwXuw0ZPb7tba68TN4sTB17Ty/eeSw3Z8sFqXvoKLuXTc9st4pldoqiaGtliz1pmEw17u/tu92KxrrEqPuWie0YG63LOozIPR47afv4quyJ/l79zc8L+PxWmhzpbS4csZNH/9AAAUkUlEQVR4nO1dj1fayNqeZGYyySQT0wwBJEAoCIRGAQUL1UV0V7tVd7e93e39//+U750EBW237d17z2cPznNO9RCTAO8z749n5p0UIQ0NDQ0NDQ0NDQ0NDQ0NDQ0NDQ0NDQ0NDQ0NDQ0NDQ0NDQ2NHx6UIkQIoch86k/ynEFy6wMLRNPwdMCY5L+AB42ng3s0mey62KaahifE9OZYdHrYcTULTwfzddTtpzvIIU/9SZ41TqPjrtxFjnaFp4TfGmSzPcvUvvCEMB1/NPUJprpQfUIQmpeqJsVP/Ul+OICGsvDXBif+3GauS/Kj8MMEo7oOaAATXuQVqJkLg6IYJQibYHnTVqdjOK7+OUS9gHrVdtRhEw5QhCklxKQ2fJjiY8EhoEwFr+33HEpsgtxxcz7f+Rv8WQWeHlxDbGWz6pte7+TdnrItIs7itOe7UIDuTU9/+qkyohTb+bn+uLewMXIOe72RjUmt16tS4Gh6OjXB3HR00judunAySAhFW36ofd0+qUHccun41fRZJHJCLKcyaRhSBn+DqN72H12ELWd8lnWkjLJlc+wTC42WUXa+h533k0jKTjSYjc18SDvnUbb/ER22BvC7gmq3WTRZYHIUyc57SiqzAZyelXcWCLsF0yPI3xHgpllDdGcQ7L8nz8AbwFi7mRRJErMvw+Bp57z68CLsNwceS8J+0hVBdjHGqCmP02hsn2fdMEzCWKSdpqvOnDagNP3w8y+dVHRlEyrVrpBttLc0+sYv7nUjFf1+zIzL/Y8Qj4Az+3qQijgRgnWD5ci5ZKG4cky01TWVqUjAR5lhcIN53pdZ8IZJEpyjB7nBfpslzPCk9OCquLv00TzgpeDVeXrc4EwwXgqTaKZM18u8m/DXksdKpeT4HO2m3ZLcQdWSVxLDt1EY8qEQHk+C8jsLPo3/Oor73GNwbCjS+s+x4bG6vd0swHejNq6VhfFNRD2LbpSXoyj0RDb5rXUwiERyvF+jLbgJ+zVLeTaslzMJL7hsQRI+gTMNzg1vGKTZCdoN4PgO8kvMGPLAgHDXkWmXi5u0haiDeh1PlOI0uqmXZSBkHd4ZWECmudXJQYXcZiT4t2lY2psZ+lqG3uAVFEZOrX0QdWY2+qSoZKJxflLzayfnDZ6wMKsgVFEsiCTm0XJeoYoFI2fBAC8ScrJbqeweDJkopfUaQYt9uIfMLk5qrjtqDkT4PFiArDtqdL1vs8Dk76a9vq6VJmK5sJCj7nHyxsdI+YKRRk11BILXqwETPJ245I1ioZ+m9Z6tjt+zAHHLyz7lWX/xgjEuoh5BO5cxjy9bKqFAuvrzpvssWMAOdmdCDHnyLRZ4cjNCa1PMJASRkZIHppIMdMVC1AISXMim1GlmyrJT1FMsxF79HZSn4HprFhLBX4KIQxC1RgPuhfIaVeuyz42zPaieHeDH7GXPggUIMhUViTnbHPZCJDBQH/oHj+UcrZcqm5LBZSd7uQKjjoNUXmBsf6SkmEkcYi2WgnOwbM5COpgiy1HT2RssJI0jYFGpNDIzRAgF1M8ZK3mNCgwOM6+g7Zn3HFigyL94lJqHLDGy8s1nLHCRjdA9C6cdiPQhaIVKVSlcaqM/BGNyrsqZ/AzTvJY8FmdFXghayC4uXLMgksahOuJAhXod8ARYaEOGkhPTpsVnQ24v4nz7WcDoffYwGPF+V0zGtcrkgXvkLAQzsLdTXOjfZokYGkka1JsLeL0HEYmx6L1S0bm5KeopFg4KFgZjvLrwAQs1dcSBSq0d5SzsGMBCCxUmpwTj2vNgoVaXj6wdp9kYbFkZPGSHcdbNeqDWiuvQ6LaTJiGUqyIb/FaD4fwJwlg0Rncql0KoA+aWOQus7uJVgfU3LBS+MPeEKmOL/EMdSNCR8QxYQPOIefeWFjIwDE/UofbB1brIj4gVSQkbCnZQhXSuLjMp3dudgOLmqtYJluAOrUAw4I+sUjgknEtm3LHwF7qbLfwSC+Y9CxCR0h20ag2wHeRsOwuYEEynDdHPWSgxyaPZ77MIpHC9Bn9z60zEndbuLDNikFyQLCBPdH7PF8lU7Acy3DfNegS2j4fywkd/gHmDtukWJoSq9kh68fFFrtrYy3s7fs4CAUdqy5yFZpAM5ezO4fYcuoi2PDtDoIbaRIo4H+wsZNnOHvVbkrNyFQaoX45F0PKR/6qRChiQ+VliWVNDnagCxnEIInvj5rIjSgzkmapUxYzgVRa2UEsOw/TDHQsu/jsWTJDMKxbeR8nQq+9ZefSitkWvt50FVaePIxHzvEYSSf8VVJ3WxzULYSg/Wo6FjiIR9ou4lXSayocKO0OJaoEEqM0MHsrXOQssm1qrHhdrMRAlEe3Ce6xYKBLDV1l4N+hynr0vpqwotqoHbNtZoLh2AAmW5/aNs7fUwhZU92sWEtlDe9ii7Ua8ytQM6n4V4IlTO/QxBsnmOHgxSJUFc9WWTKorFvyW58VycFjkhe9kwZ5IHnr1UVFlYXsePQPVtpsmhueVcl+YOdi36bjM7lkAIVWuIOoSp5WlRn6Wx4MXyph2ZRAdVPJ7mGiclUSwC3kBTgjlWTEFTuYBKHL5Aq1Z+I6IBL9D5nUPFvmp/k4m7ll4AvP8f4DiajkP9iEbxglkZBeDdpX8ngX4o5cdQdVOqsu0lHuM15edHgRs51Z6PDrr1SA1jA8gfV9WgAXOjTiR5Z03h9P2JBOCiWyqWEiEeAl5opiF2o0YD4CFocHFflEjAT3twOOKBX+Sqvml/U+9j2926tEQAiE36j7UAls6s43RPMvlMWNenLWJ5aDKvlCTGSsWVBRijbEah71OmJ/qxYmY+BSj8zARUMZm5atyJIRIoEZqKRZ+HcRseHnZiVIR98OoDbmnF/U5e0lNVMi2a5koSeACC+kgH/N5jRR5UKICHe8Got9n6XGnI7N+9/JKfbq6s70sWAsZ37HAljWM7drS6Cb8AQvGcRkCPaa3sp/HLQ6D/ZpiPHrZUSk7DBMW92M2OMQ5C8GrZnTsJQkwYEgx2FFL+z0IMvIlXZVOwAJTkqA69Hj3ZsUCRKTMC9MmIpZZufHSJAYk4ji4eBUxcCQT4W1d8XRm6Z0q5t41HLBbUZIw4yELXTm3oWIBZ7jT0LJcc0DW9q6k9GQqhJRRaUwLFmSPzAc3JW4IwTv7721V1B42Egml1R0LpxljURv5B4KLX/IBDr6AK5kI5U/gLrkoB6cymDAuP7hvjURkLbRq7dgumLm0jbhX6OJSnI0sQmsZDHWDPWShxKJD7Nh+sRzXZ4J78l82NTHxK/OrUtYYlF7uVrHpFCy0EZr+VsqyrPTXTlX1xgAR7ZtsMrJW+RXv/TbIZlXLHJca5T/zihRYsOzfssHLKrIJMjF982JoRFn9bIxqN0Y+84rNLWQB4qzt/mVwXgT7fnKrVNZOkJPykAXO4j8UZ+fyfp5jGE1X9Q7xD0e1PdVwBEEFKlUO8gBQHY1HtfW7kdpG5wBYs3qYuwDUuhumNas1F9hApy3lQW51ceiCeL4Qw5Lc37jXNoE6GL3O7lmIgzlIOHsivsSCCK9MYKEZ3LOQGLckH8SqDYnmGu4hCyqVrlsFsGk7m40D5kr1uY9289gQ50A8x7LeHOUzGG6v3DG8RM3ubSWoTdx9j9+zAHHaRqB1jc9ZMARrHIJVj6L1nJ9xuZIKBK2s/ZAFSulXAwje+LlxjBCCWsfdWMio/HI2e1nOkmToGWpucStBKVFl+4oFyJYV5KOPnaIHYMWCvfIFL4G/mnicree4PXmWV51ETSaZ6nZ3LAQ5C4TmrUUrmGizpesBPw+5MglFvUxKkYRJmqbHUOxyI1qOzC1taYUQM9tYVVCtEjaqrDQBT8o1TFC1YCE24qgHLIwa67zg9Ut3kb7oLAUWIGalwoBTPwM1c/veX0BJsYPENDcZgbvAAWJWZlHA1Hw55/0Qyq/zdwRvqVSAUTzZaH6JszEM/koUFnkhLY8wxot68cqLQS1Dvbn2Bc7CYqnyIQ4HMpr8DxLptHnbkApRdNV889/f74cF5IVJem9Vj0cniDjTKCn8Q2RzH5HXjSJNiKQDEQm9WeeFWCTZxy/cddp8/d+ToNq+ndq0cnp6Whntba9aQ4oFNNtsBIMy3yEQgoqVBmEMZjuzxrEoaiS1Rm+SntxkoVH9/KYk35fwX3824t+t1uXhTt1zS4mAKP42WLPA1NwBIn8VLEBKTCABr1Y6SyysO6ZqqNhggV198bYQ8P8HBoMs4/suAErXPHGQLc0LlGCoS3mpWEBjjE3UfOd1wEuep/JiIjzGigKKKzHhWOhsoxeAZW01uWapjSKbdnfs7yEBjEqJ/X37nc2t9gUbox21llgYlXmDERxdqLZQ/qhXkiWDd5hY1dK6pkrkxAe5Vqu5jkn/84FKckn3hd1Bzw2ujVULTJcVJmcyuFbbQpqyG8beQxaSy7kyWjta944lnTGy0NHyZrZA9B9EC1AZ098r9rdP3HKQYl9BGg8LXxBiWYXRWZuIpP+IBb6sIQf5Vxv9MsE56KhaI+12dv9ZzCa97Hhr5yX+E0CVRG9Ff8VCnEQ/EQej6UD2H/aIsWwKljb/LddpgQ0PsU8/drpF4+o/efeJCOPs8R6t5wjIeOPGeoCzxsIiLhqXWVzixZaesBSHRnZCweTVssgXeUBacBFcqwWHSiR4t4WwrySw2u1pFpMakCrUNB11ob5x8kPwW8lr4BKrbYzExv4+hELpms7TmuCHADZbGyOcz3xV8hxeXHaTBFI0g4pVXt4eUtvGtNVhRb5gYcJKau8lVSwEc4eQfFpVTUoUXY0UW4oR23fsVcVE8n8mgcRjAze+jZ19cDjpAlU6OWA8aqxZCKM5gVoI+0fLRpACZNBYtoEZ21J7fVb9MkmSDFTbUsGCmCO0VzusonwT86qr0barh2ptAFuk6F5xCDhC7bDmUKhtlUcgc6lY2IMrtDdQDArhngWRZG/9/Ekte+Pm2XJ5MHt74iJsQ00K9RFjq3TBvFs/L+MVC7JV/b3e6DSW80OKSRHnP87LUdYYnLWrcP/cyJj2XpQzOPai52NwCTR9q7pqonlzbG/pnPV/AOpbbvl+HkPEiWw6MDyLvQNq6zEGm0F0b0Yhh1RRaDgj+9NS6zQ5C/yvK3ncD4WIyifFFnN/JwqSGG4louVYbdyHoDSaqeZuEIJcXiyArcV+mle9QZqNtWgA8eSfyn7I7nWavBjlagqs7DqOk09AH17IjRmnoThbrZspFpjhiSBhQ8687NB0TWyfSVbymAfRy/P6J2opDi/qATgSKEPI7EF9ZNHTu3WMVK1SP3eA1agLNi6tlUCSzZWIxqvnUCBndN3oJLy0jltKSOdJN/cFlkZXL+pgdhbfqsmGeVTiXVk+O8hYMkzqC0yxc+Z5gmX1F5ObxEiMiyqqLYs2qChaTp/w6/8gyCdy3nREf62KmRfdtHqjVXFT67VKEir7jTmNYKfYclawYMjsd9+stTKRsMs34DeNtCSCTyDzTvbFsJs2IcCNA+GJwas903/VUF0tRxgv/ryBLBMdVaqOjkj5NBmZb26oGrIEDDU4aO00d1oXg8gL+4qDeyHHlotV90URkTpzZFlqZxzzgreY7ESMi1sXI0u1wPMUBLnZEpBSPjhwnt+MYiEubMuyl0Wlird5Q/93Qm17JebiRgw3CiWoSIEIKQOZpgZXER7iSbE6zYeJWtB0i6sVC0ljpEoj8pOESvcFIi9jHsv3yNmDNF1KSgbobqcOOq8xtiiEv2oWMqO0gPdVy3gSKrItbDL6RzDRTvBo5uhvAFJOTNb1fa4XytRRCxMfU/CBC9OtcxHLKSUUqDpjXuz1EFgeTiuW4JwrYQzTQ/CmcsGCRgGTWLX6dzwEQ5U0rKuWp++QR6QDSiCokEPJFEOq1z4OFiAQQK61Ai+RbXIIyT2pr1bmJpzz9A3wpll4CFCyR9m3KVAsiO45WWfTnIVlwcJHmfuCXwZfCEaUrlgI5fucBVGvFTsSDwxgYQr+p1l4COxCkf9dzuDJ0giv43gekRpU7ZIl/y4iEr3iLJYfUR6RDpjXhzTiDiEiDVYRqZ54OiJ9EWDXadYdGl99DkbMlOR6izaerZdn5+gIah/LPk+9kpxDPWR4Ja+pdmji0YA3jKyG3AMei2wX+ablwCWluGxjbEPKVvNIelJ1E58CFn/1oTBK/EJc2bwmj0hsCdrCbTdSpghBPVDFsjxVTyVsgaZLL8DKzSARYrlAFl5MGGPRHP66tw+llxypGfGn+so/IEY3XfY1FpiI4+SyTe2NsVuw4A1a12egy8LjJUhx9yrtg8nblZNZ1uVhWjGptSgl4pgd9CrvD4IkTBsgl7G9FMIzZs3zD6On+9I/HOzX0ddTg8fCbOZbziMWDG4InskuKyWNnuoDGA/6QEMnCCQbev1zk1JsHg24EDyVEQgPlr3ON/jODM/jqv3uxdN96R8NFDut6GskgFKIliNsmxvrm3l2/vVGiMQYel25gzCxTXR0KcIkGfLQGMqXDqGujcmrfNpI7Txkl59cy3Sw2j/l8RIo6bMn/No/GEyK7fZ+JEVsfP7kQvUgT5EOmtVH/4eLP5HpYNwrp4GU0eAnf/XA1dEsk4E6VN+tqtSvrqncRnCPwMiuesXKG7I/dNIgTtP98Rc+zjMFcUBo1XqtF1/CDNB6PXIe9w/Rxb8+nBA8et+cN3vV+62wmE5fz+fz60rVJ6vlNwvVxrvzVqv5c5XiwpuwP242W/Pdqp7BuAc1bRt/Y9Xrs2JG7fpw8qtMkj+zrWDBXHeWWqvJOtX/u4pkxL67uFjsJHv/q++wDSC279sOQe7nMNWUHwStR/+PjplbnhDIvzhvEFhvUDBVR4Zj3zGiGmngctsHgXdXZOUsOdu6O+SfQTWuULUVBMz1GCj/qUb7o4uoGuhqbDv5zh3XLc7In8XsmPmeqrunluSdqWb+YtVQSUGvUdMkek5VQ0NDQ0NDQ0NDQ0NDQ0NDQ0NDQ0NDQ0NDQ0NDQ0NDQ0NDQ0NDQ0NDQ0NDQ0NDQ0NDQ0ND4+nxf/4Z6N1NNxhLAAAAAElFTkSuQmCC;clipPath=inset(0% 28.33% 0% 22.33%);" vertex="1" parent="1">
          <mxGeometry x="360" y="520" width="106.18" height="71.74" as="geometry" />
        </mxCell>
        <mxCell id="dtmGO2UV7yBJYXBy6EBv-12" value="" style="shape=flexArrow;endArrow=classic;html=1;rounded=0;width=15;endSize=5.63;entryX=0.375;entryY=1.004;entryDx=0;entryDy=0;entryPerimeter=0;exitX=0.443;exitY=0;exitDx=0;exitDy=0;exitPerimeter=0;" edge="1" parent="1">
          <mxGeometry width="50" height="50" relative="1" as="geometry">
            <mxPoint x="413.60774" y="519.88" as="sourcePoint" />
            <mxPoint x="412.58" y="452.88" as="targetPoint" />
          </mxGeometry>
        </mxCell>
        <mxCell id="dtmGO2UV7yBJYXBy6EBv-18" value="Port 80" style="text;html=1;strokeColor=none;fillColor=none;align=center;verticalAlign=middle;whiteSpace=wrap;rounded=0;" vertex="1" parent="1">
          <mxGeometry x="383.09" y="600" width="60" height="30" as="geometry" />
        </mxCell>
        <mxCell id="dtmGO2UV7yBJYXBy6EBv-20" value="" style="shape=flexArrow;endArrow=classic;html=1;rounded=0;" edge="1" parent="1">
          <mxGeometry width="50" height="50" relative="1" as="geometry">
            <mxPoint x="333.09000000000003" y="240" as="sourcePoint" />
            <mxPoint x="383.09000000000003" y="190" as="targetPoint" />
          </mxGeometry>
        </mxCell>
        <mxCell id="dtmGO2UV7yBJYXBy6EBv-22" value="" style="shape=flexArrow;endArrow=classic;html=1;rounded=0;" edge="1" parent="1">
          <mxGeometry width="50" height="50" relative="1" as="geometry">
            <mxPoint x="500" y="240" as="sourcePoint" />
            <mxPoint x="450" y="190" as="targetPoint" />
          </mxGeometry>
        </mxCell>
        <mxCell id="dtmGO2UV7yBJYXBy6EBv-23" value="" style="sketch=0;outlineConnect=0;fontColor=#232F3E;gradientColor=none;fillColor=#C925D1;strokeColor=none;dashed=0;verticalLabelPosition=bottom;verticalAlign=top;align=center;html=1;fontSize=12;fontStyle=0;aspect=fixed;pointerEvents=1;shape=mxgraph.aws4.rds_mysql_instance;" vertex="1" parent="1">
          <mxGeometry x="374.09" y="100" width="78" height="78" as="geometry" />
        </mxCell>
        <mxCell id="dtmGO2UV7yBJYXBy6EBv-26" value="Port 3306" style="text;html=1;strokeColor=none;fillColor=none;align=center;verticalAlign=middle;whiteSpace=wrap;rounded=0;" vertex="1" parent="1">
          <mxGeometry x="386.54" y="190" width="60" height="30" as="geometry" />
        </mxCell>
        <mxCell id="dtmGO2UV7yBJYXBy6EBv-27" value="" style="rounded=1;whiteSpace=wrap;html=1;fillColor=#fff2cc;strokeColor=#d6b656;" vertex="1" parent="1">
          <mxGeometry x="90" y="70" width="90" height="80" as="geometry" />
        </mxCell>
        <mxCell id="dtmGO2UV7yBJYXBy6EBv-29" value="Docker Container" style="text;html=1;strokeColor=none;fillColor=none;align=center;verticalAlign=middle;whiteSpace=wrap;rounded=0;" vertex="1" parent="1">
          <mxGeometry x="120" y="110" width="60" height="30" as="geometry" />
        </mxCell>
      </root>
    </mxGraphModel>
  </diagram>
</mxfile>
